<svg xmlns="http://www.w3.org/2000/svg" xmlns:xlink="http://www.w3.org/1999/xlink" version="1.1" data-diagram-type="ACTIVITY" style="width:1519px;height:2212px;background:#FFFFFF;" width="1519px" height="2212px" viewBox="0 0 1519 2212" zoomAndPan="magnify" preserveAspectRatio="none" contentStyleType="text/css"><?plantuml 1.2026.7beta3?><defs/><g><g class="title" data-source-line="2"><text x="562.5029" y="35.4209" fill="#000000" font-size="22" lengthAdjust="spacing" textLength="392.1436" font-weight="700" font-family="Verdana">Backtesting — Activity Diagram</text></g><ellipse cx="596.834" cy="66.6094" rx="10" ry="10" fill="#FFFFFF" style="stroke:#000000;stroke-width:1;"/><rect x="505.3008" y="96.6094" width="183.0664" height="47.9375" fill="#FFFFFF" style="stroke:#000000;stroke-width:1;" rx="12.5" ry="12.5"/><text x="515.3008" y="117.748" fill="#000000" font-size="12" lengthAdjust="spacing" textLength="116.8184" font-family="Verdana">Backtesting(config)</text><text x="515.3008" y="131.7168" fill="#000000" font-size="12" lengthAdjust="spacing" textLength="163.0664" font-family="Verdana">Загрузить конфигурацию</text><rect x="452.6748" y="164.5469" width="288.3184" height="47.9375" fill="#FFFFFF" style="stroke:#000000;stroke-width:1;" rx="12.5" ry="12.5"/><text x="462.6748" y="185.6855" fill="#000000" font-size="12" lengthAdjust="spacing" textLength="235.0781" font-family="Verdana">StrategyResolver.load_strategy(config)</text><text x="462.6748" y="199.6543" fill="#000000" font-size="12" lengthAdjust="spacing" textLength="268.3184" font-family="Verdana">загрузить класс стратегии через importlib</text><rect x="423.8057" y="232.4844" width="346.0566" height="75.875" fill="#FFFFFF" style="stroke:#000000;stroke-width:1;" rx="12.5" ry="12.5"/><text x="433.8057" y="253.623" fill="#000000" font-size="12" lengthAdjust="spacing" textLength="326.0566" font-family="Verdana">history.load_pair_history(pairs, timeframe, timerange)</text><text x="433.8057" y="267.5918" fill="#000000" font-size="12" lengthAdjust="spacing" textLength="179.1738" font-family="Verdana">Загрузить OHLCV из файлов</text><text x="433.8057" y="281.5605" fill="#000000" font-size="12" lengthAdjust="spacing" textLength="193.9277" font-family="Verdana">(JSON / JsonGz / HDF5 / Parquet)</text><text x="433.8057" y="295.5293" fill="#000000" font-size="12" lengthAdjust="spacing" textLength="295.3301" font-family="Verdana">+ startup_candle_count свечей сверх timerange</text><rect x="496.9277" y="376.7617" width="199.8125" height="61.9063" fill="#FFFFFF" style="stroke:#000000;stroke-width:1;" rx="12.5" ry="12.5"/><text x="506.9277" y="397.9004" fill="#000000" font-size="12" lengthAdjust="spacing" textLength="140.4902" font-family="Verdana">RefreshDataCommand:</text><text x="506.9277" y="411.8691" fill="#000000" font-size="12" lengthAdjust="spacing" textLength="179.8125" font-family="Verdana">Exchange.get_historic_ohlcv()</text><text x="506.9277" y="425.8379" fill="#000000" font-size="12" lengthAdjust="spacing" textLength="175.084" font-family="Verdana">→ IDataHandler.ohlcv_store()</text><polygon points="501.1157,328.3594,692.5522,328.3594,704.5522,340.3594,692.5522,352.3594,501.1157,352.3594,489.1157,340.3594,501.1157,328.3594" fill="#FFFFFF" style="stroke:#000000;stroke-width:1;stroke-linejoin:miter;stroke-miterlimit:10;"/><text x="600.834" y="362.5698" fill="#000000" font-size="11" lengthAdjust="spacing" textLength="14.3462" font-family="Verdana">да</text><text x="501.1157" y="344.1675" fill="#000000" font-size="11" lengthAdjust="spacing" textLength="191.4365" font-family="Verdana">файлов нет или --download-data?</text><polygon points="596.834,458.668,608.834,470.668,596.834,482.668,584.834,470.668,596.834,458.668" fill="#FFFFFF" style="stroke:#000000;stroke-width:1;stroke-linejoin:miter;stroke-miterlimit:10;"/><path d="M819.0039,497.1914 L819.0039,543.5898 L799.0039,547.5898 L819.0039,551.5898 L819.0039,597.9883 A0,0 0 0 0 819.0039,597.9883 L1091.8916,597.9883 A0,0 0 0 0 1091.8916,597.9883 L1091.8916,507.1914 L1081.8916,497.1914 L819.0039,497.1914 A0,0 0 0 0 819.0039,497.1914" style="stroke:#000000;stroke-width:1;" fill="#FFFFFF"/><path d="M1081.8916,497.1914 L1081.8916,507.1914 L1091.8916,507.1914 L1081.8916,497.1914" style="stroke:#000000;stroke-width:1;" fill="#FFFFFF"/><text x="825.0039" y="514.2583" fill="#000000" font-size="13" lengthAdjust="spacing" textLength="251.8877" font-family="Verdana">Весь период одним вызовом pandas.</text><text x="825.0039" y="529.3911" fill="#000000" font-size="13" lengthAdjust="spacing" textLength="198.0532" font-family="Verdana">Результат — df с колонками:</text><text x="825.0039" y="544.5239" fill="#000000" font-size="13" lengthAdjust="spacing" textLength="140.5879" font-family="Verdana">enter_long, exit_long,</text><text x="825.0039" y="559.6567" fill="#000000" font-size="13" lengthAdjust="spacing" textLength="151.29" font-family="Verdana">enter_short, exit_short,</text><text x="825.0039" y="574.7896" fill="#000000" font-size="13" lengthAdjust="spacing" textLength="201.1001" font-family="Verdana">enter_tag, + все индикаторы.</text><text x="825.0039" y="589.9224" fill="#000000" font-size="13" lengthAdjust="spacing" textLength="163.4775" font-family="Verdana">Это НЕ свеча за свечой.</text><rect x="394.6641" y="502.668" width="404.3398" height="89.8438" fill="#FFFFFF" style="stroke:#000000;stroke-width:1;" rx="12.5" ry="12.5"/><text x="404.6641" y="523.8066" fill="#000000" font-size="12" lengthAdjust="spacing" textLength="384.3398" font-family="Verdana">Для каждой пары — векторный прогон по всему DataFrame:</text><text x="404.6641" y="537.7754" fill="#000000" font-size="12" lengthAdjust="spacing" textLength="181.6055" font-family="Verdana">strategy.analyze_pair(pair, df)</text><text x="412.293" y="551.7441" fill="#000000" font-size="12" lengthAdjust="spacing" textLength="153.1055" font-family="Verdana">→ populate_indicators(df)</text><text x="412.293" y="565.7129" fill="#000000" font-size="12" lengthAdjust="spacing" textLength="164.0039" font-family="Verdana">→ populate_entry_trend(df)</text><text x="412.293" y="579.6816" fill="#000000" font-size="12" lengthAdjust="spacing" textLength="154.7988" font-family="Verdana">→ populate_exit_trend(df)</text><rect x="455.3848" y="666.3906" width="282.8984" height="61.9063" fill="#FFFFFF" style="stroke:#000000;stroke-width:1;" rx="12.5" ry="12.5"/><text x="465.3848" y="687.5293" fill="#000000" font-size="12" lengthAdjust="spacing" textLength="215.1328" font-family="Verdana">Загрузить детальный таймфрейм</text><text x="465.3848" y="701.498" fill="#000000" font-size="12" lengthAdjust="spacing" textLength="133.6289" font-family="Verdana">для пар из timerange</text><text x="465.3848" y="715.4668" fill="#000000" font-size="12" lengthAdjust="spacing" textLength="262.8984" font-family="Verdana">(нужен для точного SL/ROI внутри свечи)</text><polygon points="522.1812,617.9883,671.4868,617.9883,683.4868,629.9883,671.4868,641.9883,522.1812,641.9883,510.1812,629.9883,522.1812,617.9883" fill="#FFFFFF" style="stroke:#000000;stroke-width:1;stroke-linejoin:miter;stroke-miterlimit:10;"/><text x="600.834" y="652.1987" fill="#000000" font-size="11" lengthAdjust="spacing" textLength="14.3462" font-family="Verdana">да</text><text x="522.1812" y="633.7964" fill="#000000" font-size="11" lengthAdjust="spacing" textLength="149.3057" font-family="Verdana">--timeframe-detail указан?</text><polygon points="596.834,748.2969,608.834,760.2969,596.834,772.2969,584.834,760.2969,596.834,748.2969" fill="#FFFFFF" style="stroke:#000000;stroke-width:1;stroke-linejoin:miter;stroke-miterlimit:10;"/><rect x="466.8223" y="792.2969" width="260.0234" height="61.9063" fill="#FFFFFF" style="stroke:#000000;stroke-width:1;" rx="12.5" ry="12.5"/><text x="476.8223" y="813.4355" fill="#000000" font-size="12" lengthAdjust="spacing" textLength="239.5137" font-family="Verdana">Обрезать startup_candle_count свечей</text><text x="476.8223" y="827.4043" fill="#000000" font-size="12" lengthAdjust="spacing" textLength="240.0234" font-family="Verdana">Прогревочный период не торгуется и</text><text x="476.8223" y="841.373" fill="#000000" font-size="12" lengthAdjust="spacing" textLength="149.8125" font-family="Verdana">не входит в статистику</text><rect x="454.4385" y="874.2031" width="284.791" height="47.9375" fill="#FFFFFF" style="stroke:#000000;stroke-width:1;" rx="12.5" ry="12.5"/><text x="464.4385" y="895.3418" fill="#000000" font-size="12" lengthAdjust="spacing" textLength="226.0898" font-family="Verdana">Инициализировать open_trades = []</text><text x="464.4385" y="909.3105" fill="#000000" font-size="12" lengthAdjust="spacing" textLength="264.791" font-family="Verdana">(LocalTrade — in-memory без SQLAlchemy)</text><rect x="36" y="987.8511" width="1441.1494" height="310.1479" fill="#FFFFFF" style="stroke:#000000;stroke-width:1;"/><path d="M192.6104,987.8511 L192.6104,997.1479 L182.6104,1007.1479 L36,1007.1479" style="stroke:#000000;stroke-width:1;" fill="none"/><text x="39" y="1001.8462" fill="#000000" font-size="14" lengthAdjust="spacing" textLength="146.6104" font-family="Verdana">Обработка выходов</text><rect x="492.6035" y="1024.1479" width="208.4609" height="33.9688" fill="#FFFFFF" style="stroke:#000000;stroke-width:1;" rx="12.5" ry="12.5"/><text x="502.6035" y="1045.2866" fill="#000000" font-size="12" lengthAdjust="spacing" textLength="188.4609" font-family="Verdana">Получить все open LocalTrade</text><path d="M1149.8916,1143.2021 L1149.8916,1243.999 L1467.1494,1243.999 L1467.1494,1153.2021 L1457.1494,1143.2021 L1149.8916,1143.2021" style="stroke:#000000;stroke-width:1;" fill="#FFFFFF"/><path d="M1457.1494,1143.2021 L1457.1494,1153.2021 L1467.1494,1153.2021 L1457.1494,1143.2021" style="stroke:#000000;stroke-width:1;" fill="#FFFFFF"/><text x="1155.8916" y="1160.269" fill="#000000" font-size="13" lengthAdjust="spacing" textLength="275.3677" font-family="Verdana">Порядок проверок строго соблюдается:</text><text x="1155.8916" y="1175.4019" fill="#000000" font-size="13" lengthAdjust="spacing" textLength="230.2739" font-family="Verdana">trailing и stoploss проверяются по</text><text x="1155.8916" y="1190.5347" fill="#000000" font-size="13" lengthAdjust="spacing" textLength="213.4019" font-family="Verdana">low (long) / high (short) свечи —</text><text x="1155.8916" y="1205.6675" fill="#000000" font-size="13" lengthAdjust="spacing" textLength="213.5605" font-family="Verdana">могут сработать внутри свечи.</text><text x="1155.8916" y="1220.8003" fill="#000000" font-size="13" lengthAdjust="spacing" textLength="296.2578" font-family="Verdana">ROI проверяется по high (long) / low (short).</text><text x="1155.8916" y="1235.9331" fill="#000000" font-size="13" lengthAdjust="spacing" textLength="214.8872" font-family="Verdana">Signal и custom_exit — по close.</text><polygon points="104.3789,1133.8271,229.6973,1133.8271,241.6973,1146.6318,229.6973,1159.4365,104.3789,1159.4365,92.3789,1146.6318,104.3789,1133.8271" fill="#FFFFFF" style="stroke:#000000;stroke-width:1;stroke-linejoin:miter;stroke-miterlimit:10;"/><text x="171.0381" y="1169.647" fill="#000000" font-size="11" lengthAdjust="spacing" textLength="14.3462" font-family="Verdana">да</text><text x="104.3789" y="1144.0376" fill="#000000" font-size="11" lengthAdjust="spacing" textLength="125.3184" font-family="Verdana">Trailing stop сработал</text><text x="104.3789" y="1156.8423" fill="#000000" font-size="11" lengthAdjust="spacing" textLength="106.1812" font-family="Verdana">на low/high свечи?</text><rect x="64" y="1192.2412" width="206.0762" height="47.9375" fill="#FFFFFF" style="stroke:#000000;stroke-width:1;" rx="12.5" ry="12.5"/><text x="74" y="1213.3799" fill="#000000" font-size="12" lengthAdjust="spacing" textLength="186.0762" font-family="Verdana">trade.close(trailing_stop_price)</text><text x="74" y="1227.3486" fill="#000000" font-size="12" lengthAdjust="spacing" textLength="161.8652" font-family="Verdana">reason = trailing_stop_loss</text><polygon points="317.5051,1133.8271,423.6863,1133.8271,435.6863,1146.6318,423.6863,1159.4365,317.5051,1159.4365,305.5051,1146.6318,317.5051,1133.8271" fill="#FFFFFF" style="stroke:#000000;stroke-width:1;stroke-linejoin:miter;stroke-miterlimit:10;"/><text x="374.5957" y="1169.647" fill="#000000" font-size="11" lengthAdjust="spacing" textLength="14.3462" font-family="Verdana">да</text><text x="317.5051" y="1144.0376" fill="#000000" font-size="11" lengthAdjust="spacing" textLength="103.2163" font-family="Verdana">Stoploss сработал</text><text x="317.5051" y="1156.8423" fill="#000000" font-size="11" lengthAdjust="spacing" textLength="106.1812" font-family="Verdana">на low/high свечи?</text><rect x="280.0762" y="1192.2412" width="181.0391" height="47.9375" fill="#FFFFFF" style="stroke:#000000;stroke-width:1;" rx="12.5" ry="12.5"/><text x="290.0762" y="1213.3799" fill="#000000" font-size="12" lengthAdjust="spacing" textLength="161.0391" font-family="Verdana">trade.close(stoploss_price)</text><text x="290.0762" y="1227.3486" fill="#000000" font-size="12" lengthAdjust="spacing" textLength="113.6484" font-family="Verdana">reason = stop_loss</text><polygon points="501.801,1133.8271,607.9822,1133.8271,619.9822,1146.6318,607.9822,1159.4365,501.801,1159.4365,489.801,1146.6318,501.801,1133.8271" fill="#FFFFFF" style="stroke:#000000;stroke-width:1;stroke-linejoin:miter;stroke-miterlimit:10;"/><text x="558.8916" y="1169.647" fill="#000000" font-size="11" lengthAdjust="spacing" textLength="14.3462" font-family="Verdana">да</text><text x="501.801" y="1144.0376" fill="#000000" font-size="11" lengthAdjust="spacing" textLength="82.8706" font-family="Verdana">ROI достигнут</text><text x="501.801" y="1156.8423" fill="#000000" font-size="11" lengthAdjust="spacing" textLength="106.1812" font-family="Verdana">на high/low свечи?</text><rect x="481.1152" y="1192.2412" width="147.5527" height="47.9375" fill="#FFFFFF" style="stroke:#000000;stroke-width:1;" rx="12.5" ry="12.5"/><text x="491.1152" y="1213.3799" fill="#000000" font-size="12" lengthAdjust="spacing" textLength="127.5527" font-family="Verdana">trade.close(roi_price)</text><text x="491.1152" y="1227.3486" fill="#000000" font-size="12" lengthAdjust="spacing" textLength="74.1621" font-family="Verdana">reason = roi</text><polygon points="665.1826,1134.6318,836.8643,1134.6318,848.8643,1146.6318,836.8643,1158.6318,665.1826,1158.6318,653.1826,1146.6318,665.1826,1134.6318" fill="#FFFFFF" style="stroke:#000000;stroke-width:1;stroke-linejoin:miter;stroke-miterlimit:10;"/><text x="755.0234" y="1168.8423" fill="#000000" font-size="11" lengthAdjust="spacing" textLength="14.3462" font-family="Verdana">да</text><text x="665.1826" y="1150.4399" fill="#000000" font-size="11" lengthAdjust="spacing" textLength="171.6816" font-family="Verdana">exit_signal в текущей строке?</text><rect x="648.668" y="1191.4365" width="204.7109" height="47.9375" fill="#FFFFFF" style="stroke:#000000;stroke-width:1;" rx="12.5" ry="12.5"/><text x="658.668" y="1212.5752" fill="#000000" font-size="12" lengthAdjust="spacing" textLength="184.7109" font-family="Verdana">trade.close(next_candle_open)</text><text x="658.668" y="1226.5439" fill="#000000" font-size="12" lengthAdjust="spacing" textLength="122.5723" font-family="Verdana">reason = exit_signal</text><polygon points="897.345,1134.6318,1065.7019,1134.6318,1077.7019,1146.6318,1065.7019,1158.6318,897.345,1158.6318,885.345,1146.6318,897.345,1134.6318" fill="#FFFFFF" style="stroke:#000000;stroke-width:1;stroke-linejoin:miter;stroke-miterlimit:10;"/><text x="985.5234" y="1168.8423" fill="#000000" font-size="11" lengthAdjust="spacing" textLength="14.3462" font-family="Verdana">да</text><text x="897.345" y="1150.4399" fill="#000000" font-size="11" lengthAdjust="spacing" textLength="168.3569" font-family="Verdana">custom_exit() вернул строку?</text><rect x="873.3789" y="1191.4365" width="216.2891" height="47.9375" fill="#FFFFFF" style="stroke:#000000;stroke-width:1;" rx="12.5" ry="12.5"/><text x="883.3789" y="1212.5752" fill="#000000" font-size="12" lengthAdjust="spacing" textLength="184.7109" font-family="Verdana">trade.close(next_candle_open)</text><text x="883.3789" y="1226.5439" fill="#000000" font-size="12" lengthAdjust="spacing" textLength="196.2891" font-family="Verdana">reason = custom_exit:&lt;reason&gt;</text><polygon points="510.0828,1078.1167,683.5852,1078.1167,695.5852,1090.1167,683.5852,1102.1167,510.0828,1102.1167,498.0828,1090.1167,510.0828,1078.1167" fill="#FFFFFF" style="stroke:#000000;stroke-width:1;stroke-linejoin:miter;stroke-miterlimit:10;"/><text x="600.834" y="1112.3271" fill="#000000" font-size="11" lengthAdjust="spacing" textLength="25.7061" font-family="Verdana">есть</text><text x="510.0828" y="1093.9248" fill="#000000" font-size="11" lengthAdjust="spacing" textLength="173.5024" font-family="Verdana">для каждой открытой сделки</text><text x="477.7156" y="1087.5225" fill="#000000" font-size="11" lengthAdjust="spacing" textLength="20.3672" font-family="Verdana">нет</text><rect x="446.542" y="1323.8662" width="657.3496" height="443.2852" fill="#FFFFFF" style="stroke:#000000;stroke-width:1;"/><path d="M592.0986,1323.8662 L592.0986,1333.1631 L582.0986,1343.1631 L446.542,1343.1631" style="stroke:#000000;stroke-width:1;" fill="none"/><text x="449.542" y="1337.8613" fill="#000000" font-size="14" lengthAdjust="spacing" textLength="135.5566" font-family="Verdana">Обработка входов</text><path d="M727.126,1513.8623 L727.126,1560.2607 L707.126,1564.2607 L727.126,1568.2607 L727.126,1614.6592 A0,0 0 0 0 727.126,1614.6592 L1031.3521,1614.6592 A0,0 0 0 0 1031.3521,1614.6592 L1031.3521,1523.8623 L1021.3521,1513.8623 L727.126,1513.8623 A0,0 0 0 0 727.126,1513.8623" style="stroke:#000000;stroke-width:1;" fill="#FFFFFF"/><path d="M1021.3521,1513.8623 L1021.3521,1523.8623 L1031.3521,1523.8623 L1021.3521,1513.8623" style="stroke:#000000;stroke-width:1;" fill="#FFFFFF"/><text x="733.126" y="1530.9292" fill="#000000" font-size="13" lengthAdjust="spacing" textLength="283.2261" font-family="Verdana">Вход строго по open СЛЕДУЮЩЕЙ свечи.</text><text x="733.126" y="1546.062" fill="#000000" font-size="13" lengthAdjust="spacing" textLength="264.6401" font-family="Verdana">Исключение: если SL/ROI срабатывает</text><text x="733.126" y="1561.1948" fill="#000000" font-size="13" lengthAdjust="spacing" textLength="204.5151" font-family="Verdana">на той же свече что и вход —</text><text x="733.126" y="1576.3276" fill="#000000" font-size="13" lengthAdjust="spacing" textLength="242.1885" font-family="Verdana">freqtrade разрешает такую сделку,</text><text x="733.126" y="1591.4604" fill="#000000" font-size="13" lengthAdjust="spacing" textLength="236.7739" font-family="Verdana">но это потенциальный look-ahead.</text><text x="733.126" y="1606.5933" fill="#000000" font-size="13" lengthAdjust="spacing" textLength="275.6724" font-family="Verdana">--timeframe-detail решает эту проблему.</text><rect x="486.542" y="1505.3701" width="220.584" height="117.7813" fill="#FFFFFF" style="stroke:#000000;stroke-width:1;" rx="12.5" ry="12.5"/><text x="496.542" y="1526.5088" fill="#000000" font-size="12" lengthAdjust="spacing" textLength="70.6113" font-family="Verdana">LocalTrade(</text><text x="504.1709" y="1540.4775" fill="#000000" font-size="12" lengthAdjust="spacing" textLength="67.9746" font-family="Verdana">pair = pair,</text><text x="504.1709" y="1554.4463" fill="#000000" font-size="12" lengthAdjust="spacing" textLength="187.0547" font-family="Verdana">open_rate = next_row["open"],</text><text x="504.1709" y="1568.415" fill="#000000" font-size="12" lengthAdjust="spacing" textLength="190.248" font-family="Verdana">open_date = next_candle_date,</text><text x="504.1709" y="1582.3838" fill="#000000" font-size="12" lengthAdjust="spacing" textLength="192.9551" font-family="Verdana">fee_open = exchange.get_fee(),</text><text x="504.1709" y="1596.3525" fill="#000000" font-size="12" lengthAdjust="spacing" textLength="177.6914" font-family="Verdana">is_short = (enter_short == 1)</text><text x="496.542" y="1610.3213" fill="#000000" font-size="12" lengthAdjust="spacing" textLength="4.6816" font-family="Verdana">)</text><polygon points="492.2776,1456.9678,701.3904,1456.9678,713.3904,1468.9678,701.3904,1480.9678,492.2776,1480.9678,480.2776,1468.9678,492.2776,1456.9678" fill="#FFFFFF" style="stroke:#000000;stroke-width:1;stroke-linejoin:miter;stroke-miterlimit:10;"/><text x="600.834" y="1491.1782" fill="#000000" font-size="11" lengthAdjust="spacing" textLength="14.3462" font-family="Verdana">да</text><text x="492.2776" y="1472.7759" fill="#000000" font-size="11" lengthAdjust="spacing" textLength="209.1128" font-family="Verdana">ProtectionManager: нет блокировок?</text><polygon points="596.834,1643.1514,608.834,1655.1514,596.834,1667.1514,584.834,1655.1514,596.834,1643.1514" fill="#FFFFFF" style="stroke:#000000;stroke-width:1;stroke-linejoin:miter;stroke-miterlimit:10;"/><polygon points="490.3789,1408.5654,703.2891,1408.5654,715.2891,1420.5654,703.2891,1432.5654,490.3789,1432.5654,478.3789,1420.5654,490.3789,1408.5654" fill="#FFFFFF" style="stroke:#000000;stroke-width:1;stroke-linejoin:miter;stroke-miterlimit:10;"/><text x="600.834" y="1442.7759" fill="#000000" font-size="11" lengthAdjust="spacing" textLength="14.3462" font-family="Verdana">да</text><text x="490.3789" y="1424.3735" fill="#000000" font-size="11" lengthAdjust="spacing" textLength="212.9102" font-family="Verdana">len(open_trades) &lt; max_open_trades?</text><polygon points="596.834,1687.1514,608.834,1699.1514,596.834,1711.1514,584.834,1699.1514,596.834,1687.1514" fill="#FFFFFF" style="stroke:#000000;stroke-width:1;stroke-linejoin:miter;stroke-miterlimit:10;"/><polygon points="486.4822,1360.1631,707.1858,1360.1631,719.1858,1372.1631,707.1858,1384.1631,486.4822,1384.1631,474.4822,1372.1631,486.4822,1360.1631" fill="#FFFFFF" style="stroke:#000000;stroke-width:1;stroke-linejoin:miter;stroke-miterlimit:10;"/><text x="600.834" y="1394.3735" fill="#000000" font-size="11" lengthAdjust="spacing" textLength="14.3462" font-family="Verdana">да</text><text x="486.4822" y="1375.9712" fill="#000000" font-size="11" lengthAdjust="spacing" textLength="220.7036" font-family="Verdana">enter_long == 1 или enter_short == 1?</text><polygon points="596.834,1731.1514,608.834,1743.1514,596.834,1755.1514,584.834,1743.1514,596.834,1731.1514" fill="#FFFFFF" style="stroke:#000000;stroke-width:1;stroke-linejoin:miter;stroke-miterlimit:10;"/><polygon points="469.6519,942.1406,724.0161,942.1406,736.0161,954.1406,724.0161,966.1406,469.6519,966.1406,457.6519,954.1406,469.6519,942.1406" fill="#FFFFFF" style="stroke:#000000;stroke-width:1;stroke-linejoin:miter;stroke-miterlimit:10;"/><text x="600.834" y="976.3511" fill="#000000" font-size="11" lengthAdjust="spacing" textLength="52.2769" font-family="Verdana">не конец</text><text x="469.6519" y="957.9487" fill="#000000" font-size="11" lengthAdjust="spacing" textLength="254.3643" font-family="Verdana">для каждой строки df — от старых к новым</text><text x="357.9966" y="951.5464" fill="#000000" font-size="11" lengthAdjust="spacing" textLength="99.6553" font-family="Verdana">конец DataFrame</text><rect x="438.0107" y="1799.1514" width="317.6465" height="287.9844" fill="#FFFFFF" style="stroke:#000000;stroke-width:1;"/><path d="M594.3545,1799.1514 L594.3545,1808.4482 L584.3545,1818.4482 L438.0107,1818.4482" style="stroke:#000000;stroke-width:1;" fill="none"/><text x="441.0107" y="1813.1465" fill="#000000" font-size="14" lengthAdjust="spacing" textLength="146.3438" font-family="Verdana">Расчёт результатов</text><rect x="448.0107" y="1835.4482" width="297.6465" height="61.9063" fill="#FFFFFF" style="stroke:#000000;stroke-width:1;" rx="12.5" ry="12.5"/><text x="458.0107" y="1856.5869" fill="#000000" font-size="12" lengthAdjust="spacing" textLength="197.3672" font-family="Verdana">force_close_all(last_candle_date)</text><text x="458.0107" y="1870.5557" fill="#000000" font-size="12" lengthAdjust="spacing" textLength="277.6465" font-family="Verdana">Все незакрытые позиции → left_open_trades</text><text x="458.0107" y="1884.5244" fill="#000000" font-size="12" lengthAdjust="spacing" textLength="212.4316" font-family="Verdana">закрыть по последней цене close</text><rect x="456.1377" y="1917.3545" width="281.3926" height="89.8438" fill="#FFFFFF" style="stroke:#000000;stroke-width:1;" rx="12.5" ry="12.5"/><text x="466.1377" y="1938.4932" fill="#000000" font-size="12" lengthAdjust="spacing" textLength="261.3926" font-family="Verdana">generate_backtest_stats(all_results, config)</text><text x="466.1377" y="1952.4619" fill="#000000" font-size="12" lengthAdjust="spacing" textLength="189.3574" font-family="Verdana">Sharpe, Sortino, Calmar, CAGR,</text><text x="466.1377" y="1966.4307" fill="#000000" font-size="12" lengthAdjust="spacing" textLength="156.8145" font-family="Verdana">max_drawdown, win_rate,</text><text x="466.1377" y="1980.3994" fill="#000000" font-size="12" lengthAdjust="spacing" textLength="154.2012" font-family="Verdana">profit_factor, expectancy,</text><text x="466.1377" y="1994.3682" fill="#000000" font-size="12" lengthAdjust="spacing" textLength="150.5566" font-family="Verdana">avg_duration, trades/day</text><rect x="497.2412" y="2027.1982" width="199.1855" height="47.9375" fill="#FFFFFF" style="stroke:#000000;stroke-width:1;" rx="12.5" ry="12.5"/><text x="507.2412" y="2048.3369" fill="#000000" font-size="12" lengthAdjust="spacing" textLength="144.0059" font-family="Verdana">store_backtest_results()</text><text x="507.2412" y="2062.3057" fill="#000000" font-size="12" lengthAdjust="spacing" textLength="179.1855" font-family="Verdana">→ user_data/backtest_results/</text><rect x="431.0625" y="2107.1357" width="331.543" height="47.9375" fill="#FFFFFF" style="stroke:#000000;stroke-width:1;" rx="12.5" ry="12.5"/><text x="441.0625" y="2128.2744" fill="#000000" font-size="12" lengthAdjust="spacing" textLength="311.543" font-family="Verdana">Вывод в консоль (таблица BACKTESTING REPORT,</text><text x="441.0625" y="2142.2432" fill="#000000" font-size="12" lengthAdjust="spacing" textLength="252.8203" font-family="Verdana">EXIT REASON STATS, SUMMARY METRICS)</text><ellipse cx="596.834" cy="2186.0732" rx="11" ry="11" fill="none" style="stroke:#000000;stroke-width:1;"/><ellipse cx="596.834" cy="2186.0732" rx="6" ry="6" fill="#FFFFFF" style="stroke:#000000;stroke-width:1;"/><line x1="596.834" y1="76.6094" x2="596.834" y2="96.6094" style="stroke:#000000;stroke-width:1;"/><polygon points="592.834,86.6094,596.834,96.6094,600.834,86.6094,596.834,90.6094" fill="#000000" style="stroke:#000000;stroke-width:1;stroke-linejoin:miter;stroke-miterlimit:10;"/><line x1="596.834" y1="144.5469" x2="596.834" y2="164.5469" style="stroke:#000000;stroke-width:1;"/><polygon points="592.834,154.5469,596.834,164.5469,600.834,154.5469,596.834,158.5469" fill="#000000" style="stroke:#000000;stroke-width:1;stroke-linejoin:miter;stroke-miterlimit:10;"/><line x1="596.834" y1="212.4844" x2="596.834" y2="232.4844" style="stroke:#000000;stroke-width:1;"/><polygon points="592.834,222.4844,596.834,232.4844,600.834,222.4844,596.834,226.4844" fill="#000000" style="stroke:#000000;stroke-width:1;stroke-linejoin:miter;stroke-miterlimit:10;"/><line x1="596.834" y1="352.3594" x2="596.834" y2="376.7617" style="stroke:#000000;stroke-width:1;"/><polygon points="592.834,366.7617,596.834,376.7617,600.834,366.7617,596.834,370.7617" fill="#000000" style="stroke:#000000;stroke-width:1;stroke-linejoin:miter;stroke-miterlimit:10;"/><line x1="704.5522" y1="340.3594" x2="716.5522" y2="340.3594" style="stroke:#000000;stroke-width:1;"/><polygon points="712.5522,397.7148,716.5522,407.7148,720.5522,397.7148,716.5522,401.7148" fill="#000000" style="stroke:#000000;stroke-width:1;stroke-linejoin:miter;stroke-miterlimit:10;"/><line x1="716.5522" y1="340.3594" x2="716.5522" y2="470.668" style="stroke:#000000;stroke-width:1;"/><line x1="716.5522" y1="470.668" x2="608.834" y2="470.668" style="stroke:#000000;stroke-width:1;"/><polygon points="618.834,466.668,608.834,470.668,618.834,474.668,614.834,470.668" fill="#000000" style="stroke:#000000;stroke-width:1;stroke-linejoin:miter;stroke-miterlimit:10;"/><line x1="596.834" y1="438.668" x2="596.834" y2="458.668" style="stroke:#000000;stroke-width:1;"/><polygon points="592.834,448.668,596.834,458.668,600.834,448.668,596.834,452.668" fill="#000000" style="stroke:#000000;stroke-width:1;stroke-linejoin:miter;stroke-miterlimit:10;"/><line x1="596.834" y1="308.3594" x2="596.834" y2="328.3594" style="stroke:#000000;stroke-width:1;"/><polygon points="592.834,318.3594,596.834,328.3594,600.834,318.3594,596.834,322.3594" fill="#000000" style="stroke:#000000;stroke-width:1;stroke-linejoin:miter;stroke-miterlimit:10;"/><line x1="596.834" y1="482.668" x2="596.834" y2="502.668" style="stroke:#000000;stroke-width:1;"/><polygon points="592.834,492.668,596.834,502.668,600.834,492.668,596.834,496.668" fill="#000000" style="stroke:#000000;stroke-width:1;stroke-linejoin:miter;stroke-miterlimit:10;"/><line x1="596.834" y1="641.9883" x2="596.834" y2="666.3906" style="stroke:#000000;stroke-width:1;"/><polygon points="592.834,656.3906,596.834,666.3906,600.834,656.3906,596.834,660.3906" fill="#000000" style="stroke:#000000;stroke-width:1;stroke-linejoin:miter;stroke-miterlimit:10;"/><line x1="683.4868" y1="629.9883" x2="748.2832" y2="629.9883" style="stroke:#000000;stroke-width:1;"/><polygon points="744.2832,687.3438,748.2832,697.3438,752.2832,687.3438,748.2832,691.3438" fill="#000000" style="stroke:#000000;stroke-width:1;stroke-linejoin:miter;stroke-miterlimit:10;"/><line x1="748.2832" y1="629.9883" x2="748.2832" y2="760.2969" style="stroke:#000000;stroke-width:1;"/><line x1="748.2832" y1="760.2969" x2="608.834" y2="760.2969" style="stroke:#000000;stroke-width:1;"/><polygon points="618.834,756.2969,608.834,760.2969,618.834,764.2969,614.834,760.2969" fill="#000000" style="stroke:#000000;stroke-width:1;stroke-linejoin:miter;stroke-miterlimit:10;"/><line x1="596.834" y1="728.2969" x2="596.834" y2="748.2969" style="stroke:#000000;stroke-width:1;"/><polygon points="592.834,738.2969,596.834,748.2969,600.834,738.2969,596.834,742.2969" fill="#000000" style="stroke:#000000;stroke-width:1;stroke-linejoin:miter;stroke-miterlimit:10;"/><line x1="596.834" y1="592.5117" x2="596.834" y2="617.9883" style="stroke:#000000;stroke-width:1;"/><polygon points="592.834,607.9883,596.834,617.9883,600.834,607.9883,596.834,611.9883" fill="#000000" style="stroke:#000000;stroke-width:1;stroke-linejoin:miter;stroke-miterlimit:10;"/><line x1="596.834" y1="772.2969" x2="596.834" y2="792.2969" style="stroke:#000000;stroke-width:1;"/><polygon points="592.834,782.2969,596.834,792.2969,600.834,782.2969,596.834,786.2969" fill="#000000" style="stroke:#000000;stroke-width:1;stroke-linejoin:miter;stroke-miterlimit:10;"/><line x1="596.834" y1="854.2031" x2="596.834" y2="874.2031" style="stroke:#000000;stroke-width:1;"/><polygon points="592.834,864.2031,596.834,874.2031,600.834,864.2031,596.834,868.2031" fill="#000000" style="stroke:#000000;stroke-width:1;stroke-linejoin:miter;stroke-miterlimit:10;"/><line x1="167.0381" y1="1159.4365" x2="167.0381" y2="1192.2412" style="stroke:#000000;stroke-width:1;"/><polygon points="163.0381,1182.2412,167.0381,1192.2412,171.0381,1182.2412,167.0381,1186.2412" fill="#000000" style="stroke:#000000;stroke-width:1;stroke-linejoin:miter;stroke-miterlimit:10;"/><line x1="167.0381" y1="1240.1787" x2="167.0381" y2="1263.999" style="stroke:#000000;stroke-width:1;"/><polygon points="163.0381,1253.999,167.0381,1263.999,171.0381,1253.999,167.0381,1257.999" fill="#000000" style="stroke:#000000;stroke-width:1;stroke-linejoin:miter;stroke-miterlimit:10;"/><line x1="370.5957" y1="1159.4365" x2="370.5957" y2="1192.2412" style="stroke:#000000;stroke-width:1;"/><polygon points="366.5957,1182.2412,370.5957,1192.2412,374.5957,1182.2412,370.5957,1186.2412" fill="#000000" style="stroke:#000000;stroke-width:1;stroke-linejoin:miter;stroke-miterlimit:10;"/><line x1="370.5957" y1="1240.1787" x2="370.5957" y2="1263.999" style="stroke:#000000;stroke-width:1;"/><polygon points="366.5957,1253.999,370.5957,1263.999,374.5957,1253.999,370.5957,1257.999" fill="#000000" style="stroke:#000000;stroke-width:1;stroke-linejoin:miter;stroke-miterlimit:10;"/><line x1="554.8916" y1="1159.4365" x2="554.8916" y2="1192.2412" style="stroke:#000000;stroke-width:1;"/><polygon points="550.8916,1182.2412,554.8916,1192.2412,558.8916,1182.2412,554.8916,1186.2412" fill="#000000" style="stroke:#000000;stroke-width:1;stroke-linejoin:miter;stroke-miterlimit:10;"/><line x1="554.8916" y1="1240.1787" x2="554.8916" y2="1263.999" style="stroke:#000000;stroke-width:1;"/><polygon points="550.8916,1253.999,554.8916,1263.999,558.8916,1253.999,554.8916,1257.999" fill="#000000" style="stroke:#000000;stroke-width:1;stroke-linejoin:miter;stroke-miterlimit:10;"/><line x1="751.0234" y1="1158.6318" x2="751.0234" y2="1191.4365" style="stroke:#000000;stroke-width:1;"/><polygon points="747.0234,1181.4365,751.0234,1191.4365,755.0234,1181.4365,751.0234,1185.4365" fill="#000000" style="stroke:#000000;stroke-width:1;stroke-linejoin:miter;stroke-miterlimit:10;"/><line x1="751.0234" y1="1239.374" x2="751.0234" y2="1263.999" style="stroke:#000000;stroke-width:1;"/><polygon points="747.0234,1253.999,751.0234,1263.999,755.0234,1253.999,751.0234,1257.999" fill="#000000" style="stroke:#000000;stroke-width:1;stroke-linejoin:miter;stroke-miterlimit:10;"/><line x1="981.5234" y1="1158.6318" x2="981.5234" y2="1191.4365" style="stroke:#000000;stroke-width:1;"/><polygon points="977.5234,1181.4365,981.5234,1191.4365,985.5234,1181.4365,981.5234,1185.4365" fill="#000000" style="stroke:#000000;stroke-width:1;stroke-linejoin:miter;stroke-miterlimit:10;"/><line x1="981.5234" y1="1239.374" x2="981.5234" y2="1263.999" style="stroke:#000000;stroke-width:1;"/><polygon points="977.5234,1253.999,981.5234,1263.999,985.5234,1253.999,981.5234,1257.999" fill="#000000" style="stroke:#000000;stroke-width:1;stroke-linejoin:miter;stroke-miterlimit:10;"/><line x1="241.6973" y1="1146.6318" x2="305.5051" y2="1146.6318" style="stroke:#000000;stroke-width:1;"/><polygon points="295.5051,1142.6318,305.5051,1146.6318,295.5051,1150.6318,299.5051,1146.6318" fill="#000000" style="stroke:#000000;stroke-width:1;stroke-linejoin:miter;stroke-miterlimit:10;"/><line x1="435.6863" y1="1146.6318" x2="489.801" y2="1146.6318" style="stroke:#000000;stroke-width:1;"/><polygon points="479.801,1142.6318,489.801,1146.6318,479.801,1150.6318,483.801,1146.6318" fill="#000000" style="stroke:#000000;stroke-width:1;stroke-linejoin:miter;stroke-miterlimit:10;"/><line x1="619.9822" y1="1146.6318" x2="653.1826" y2="1146.6318" style="stroke:#000000;stroke-width:1;"/><polygon points="643.1826,1142.6318,653.1826,1146.6318,643.1826,1150.6318,647.1826,1146.6318" fill="#000000" style="stroke:#000000;stroke-width:1;stroke-linejoin:miter;stroke-miterlimit:10;"/><line x1="848.8643" y1="1146.6318" x2="885.345" y2="1146.6318" style="stroke:#000000;stroke-width:1;"/><polygon points="875.345,1142.6318,885.345,1146.6318,875.345,1150.6318,879.345,1146.6318" fill="#000000" style="stroke:#000000;stroke-width:1;stroke-linejoin:miter;stroke-miterlimit:10;"/><line x1="596.834" y1="1102.1167" x2="596.834" y2="1118.8271" style="stroke:#000000;stroke-width:1;"/><line x1="596.834" y1="1118.8271" x2="167.0381" y2="1118.8271" style="stroke:#000000;stroke-width:1;"/><line x1="167.0381" y1="1118.8271" x2="167.0381" y2="1133.8271" style="stroke:#000000;stroke-width:1;"/><polygon points="163.0381,1123.8271,167.0381,1133.8271,171.0381,1123.8271,167.0381,1127.8271" fill="#000000" style="stroke:#000000;stroke-width:1;stroke-linejoin:miter;stroke-miterlimit:10;"/><line x1="1077.7019" y1="1146.6318" x2="1117.8916" y2="1146.6318" style="stroke:#000000;stroke-width:1;"/><line x1="1117.8916" y1="1146.6318" x2="1117.8916" y2="1263.999" style="stroke:#000000;stroke-width:1;"/><polygon points="1113.8916,1253.999,1117.8916,1263.999,1121.8916,1253.999,1117.8916,1257.999" fill="#000000" style="stroke:#000000;stroke-width:1;stroke-linejoin:miter;stroke-miterlimit:10;"/><line x1="167.0381" y1="1263.999" x2="1117.8916" y2="1263.999" style="stroke:#000000;stroke-width:1;"/><line x1="596.834" y1="1263.999" x2="596.834" y2="1273.999" style="stroke:#000000;stroke-width:1;"/><line x1="596.834" y1="1273.999" x2="1135.8916" y2="1273.999" style="stroke:#000000;stroke-width:1;"/><polygon points="1131.8916,1203.6006,1135.8916,1193.6006,1139.8916,1203.6006,1135.8916,1199.6006" fill="#000000" style="stroke:#000000;stroke-width:1;stroke-linejoin:miter;stroke-miterlimit:10;"/><line x1="1135.8916" y1="1090.1167" x2="1135.8916" y2="1273.999" style="stroke:#000000;stroke-width:1;"/><line x1="1135.8916" y1="1090.1167" x2="695.5852" y2="1090.1167" style="stroke:#000000;stroke-width:1;"/><polygon points="705.5852,1086.1167,695.5852,1090.1167,705.5852,1094.1167,701.5852,1090.1167" fill="#000000" style="stroke:#000000;stroke-width:1;stroke-linejoin:miter;stroke-miterlimit:10;"/><line x1="498.0828" y1="1090.1167" x2="52" y2="1090.1167" style="stroke:#000000;stroke-width:1;"/><polygon points="48,1189.6006,52,1199.6006,56,1189.6006,52,1193.6006" fill="#000000" style="stroke:#000000;stroke-width:1;stroke-linejoin:miter;stroke-miterlimit:10;"/><line x1="52" y1="1090.1167" x2="52" y2="1285.999" style="stroke:#000000;stroke-width:1;"/><line x1="52" y1="1285.999" x2="596.834" y2="1285.999" style="stroke:#000000;stroke-width:1;"/><line x1="596.834" y1="1285.999" x2="596.834" y2="1360.1631" style="stroke:#000000;stroke-width:1;"/><polygon points="592.834,1350.1631,596.834,1360.1631,600.834,1350.1631,596.834,1354.1631" fill="#000000" style="stroke:#000000;stroke-width:1;stroke-linejoin:miter;stroke-miterlimit:10;"/><line x1="596.834" y1="1058.1167" x2="596.834" y2="1078.1167" style="stroke:#000000;stroke-width:1;"/><polygon points="592.834,1068.1167,596.834,1078.1167,600.834,1068.1167,596.834,1072.1167" fill="#000000" style="stroke:#000000;stroke-width:1;stroke-linejoin:miter;stroke-miterlimit:10;"/><line x1="596.834" y1="1480.9678" x2="596.834" y2="1505.3701" style="stroke:#000000;stroke-width:1;"/><polygon points="592.834,1495.3701,596.834,1505.3701,600.834,1495.3701,596.834,1499.3701" fill="#000000" style="stroke:#000000;stroke-width:1;stroke-linejoin:miter;stroke-miterlimit:10;"/><line x1="713.3904" y1="1468.9678" x2="1041.3521" y2="1468.9678" style="stroke:#000000;stroke-width:1;"/><polygon points="1037.3521,1554.2607,1041.3521,1564.2607,1045.3521,1554.2607,1041.3521,1558.2607" fill="#000000" style="stroke:#000000;stroke-width:1;stroke-linejoin:miter;stroke-miterlimit:10;"/><line x1="1041.3521" y1="1468.9678" x2="1041.3521" y2="1655.1514" style="stroke:#000000;stroke-width:1;"/><line x1="1041.3521" y1="1655.1514" x2="608.834" y2="1655.1514" style="stroke:#000000;stroke-width:1;"/><polygon points="618.834,1651.1514,608.834,1655.1514,618.834,1659.1514,614.834,1655.1514" fill="#000000" style="stroke:#000000;stroke-width:1;stroke-linejoin:miter;stroke-miterlimit:10;"/><line x1="596.834" y1="1623.1514" x2="596.834" y2="1643.1514" style="stroke:#000000;stroke-width:1;"/><polygon points="592.834,1633.1514,596.834,1643.1514,600.834,1633.1514,596.834,1637.1514" fill="#000000" style="stroke:#000000;stroke-width:1;stroke-linejoin:miter;stroke-miterlimit:10;"/><line x1="596.834" y1="1432.5654" x2="596.834" y2="1456.9678" style="stroke:#000000;stroke-width:1;"/><polygon points="592.834,1446.9678,596.834,1456.9678,600.834,1446.9678,596.834,1450.9678" fill="#000000" style="stroke:#000000;stroke-width:1;stroke-linejoin:miter;stroke-miterlimit:10;"/><line x1="715.2891" y1="1420.5654" x2="1063.3521" y2="1420.5654" style="stroke:#000000;stroke-width:1;"/><polygon points="1059.3521,1554.2607,1063.3521,1564.2607,1067.3521,1554.2607,1063.3521,1558.2607" fill="#000000" style="stroke:#000000;stroke-width:1;stroke-linejoin:miter;stroke-miterlimit:10;"/><line x1="1063.3521" y1="1420.5654" x2="1063.3521" y2="1699.1514" style="stroke:#000000;stroke-width:1;"/><line x1="1063.3521" y1="1699.1514" x2="608.834" y2="1699.1514" style="stroke:#000000;stroke-width:1;"/><polygon points="618.834,1695.1514,608.834,1699.1514,618.834,1703.1514,614.834,1699.1514" fill="#000000" style="stroke:#000000;stroke-width:1;stroke-linejoin:miter;stroke-miterlimit:10;"/><line x1="596.834" y1="1667.1514" x2="596.834" y2="1687.1514" style="stroke:#000000;stroke-width:1;"/><polygon points="592.834,1677.1514,596.834,1687.1514,600.834,1677.1514,596.834,1681.1514" fill="#000000" style="stroke:#000000;stroke-width:1;stroke-linejoin:miter;stroke-miterlimit:10;"/><line x1="596.834" y1="1384.1631" x2="596.834" y2="1408.5654" style="stroke:#000000;stroke-width:1;"/><polygon points="592.834,1398.5654,596.834,1408.5654,600.834,1398.5654,596.834,1402.5654" fill="#000000" style="stroke:#000000;stroke-width:1;stroke-linejoin:miter;stroke-miterlimit:10;"/><line x1="719.1858" y1="1372.1631" x2="1085.3521" y2="1372.1631" style="stroke:#000000;stroke-width:1;"/><polygon points="1081.3521,1554.2607,1085.3521,1564.2607,1089.3521,1554.2607,1085.3521,1558.2607" fill="#000000" style="stroke:#000000;stroke-width:1;stroke-linejoin:miter;stroke-miterlimit:10;"/><line x1="1085.3521" y1="1372.1631" x2="1085.3521" y2="1743.1514" style="stroke:#000000;stroke-width:1;"/><line x1="1085.3521" y1="1743.1514" x2="608.834" y2="1743.1514" style="stroke:#000000;stroke-width:1;"/><polygon points="618.834,1739.1514,608.834,1743.1514,618.834,1747.1514,614.834,1743.1514" fill="#000000" style="stroke:#000000;stroke-width:1;stroke-linejoin:miter;stroke-miterlimit:10;"/><line x1="596.834" y1="1711.1514" x2="596.834" y2="1731.1514" style="stroke:#000000;stroke-width:1;"/><polygon points="592.834,1721.1514,596.834,1731.1514,600.834,1721.1514,596.834,1725.1514" fill="#000000" style="stroke:#000000;stroke-width:1;stroke-linejoin:miter;stroke-miterlimit:10;"/><line x1="596.834" y1="966.1406" x2="596.834" y2="1024.1479" style="stroke:#000000;stroke-width:1;"/><polygon points="592.834,1014.1479,596.834,1024.1479,600.834,1014.1479,596.834,1018.1479" fill="#000000" style="stroke:#000000;stroke-width:1;stroke-linejoin:miter;stroke-miterlimit:10;"/><line x1="596.834" y1="1755.1514" x2="596.834" y2="1777.1514" style="stroke:#000000;stroke-width:1;"/><line x1="596.834" y1="1777.1514" x2="1489.1494" y2="1777.1514" style="stroke:#000000;stroke-width:1;"/><polygon points="1485.1494,1321.999,1489.1494,1311.999,1493.1494,1321.999,1489.1494,1317.999" fill="#000000" style="stroke:#000000;stroke-width:1;stroke-linejoin:miter;stroke-miterlimit:10;"/><line x1="1489.1494" y1="954.1406" x2="1489.1494" y2="1777.1514" style="stroke:#000000;stroke-width:1;"/><line x1="1489.1494" y1="954.1406" x2="736.0161" y2="954.1406" style="stroke:#000000;stroke-width:1;"/><polygon points="746.0161,950.1406,736.0161,954.1406,746.0161,958.1406,742.0161,954.1406" fill="#000000" style="stroke:#000000;stroke-width:1;stroke-linejoin:miter;stroke-miterlimit:10;"/><line x1="457.6519" y1="954.1406" x2="24" y2="954.1406" style="stroke:#000000;stroke-width:1;"/><polygon points="20,1307.999,24,1317.999,28,1307.999,24,1311.999" fill="#000000" style="stroke:#000000;stroke-width:1;stroke-linejoin:miter;stroke-miterlimit:10;"/><line x1="24" y1="954.1406" x2="24" y2="1789.1514" style="stroke:#000000;stroke-width:1;"/><line x1="24" y1="1789.1514" x2="596.834" y2="1789.1514" style="stroke:#000000;stroke-width:1;"/><line x1="596.834" y1="1789.1514" x2="596.834" y2="1835.4482" style="stroke:#000000;stroke-width:1;"/><polygon points="592.834,1825.4482,596.834,1835.4482,600.834,1825.4482,596.834,1829.4482" fill="#000000" style="stroke:#000000;stroke-width:1;stroke-linejoin:miter;stroke-miterlimit:10;"/><line x1="596.834" y1="922.1406" x2="596.834" y2="942.1406" style="stroke:#000000;stroke-width:1;"/><polygon points="592.834,932.1406,596.834,942.1406,600.834,932.1406,596.834,936.1406" fill="#000000" style="stroke:#000000;stroke-width:1;stroke-linejoin:miter;stroke-miterlimit:10;"/><line x1="596.834" y1="1897.3545" x2="596.834" y2="1917.3545" style="stroke:#000000;stroke-width:1;"/><polygon points="592.834,1907.3545,596.834,1917.3545,600.834,1907.3545,596.834,1911.3545" fill="#000000" style="stroke:#000000;stroke-width:1;stroke-linejoin:miter;stroke-miterlimit:10;"/><line x1="596.834" y1="2007.1982" x2="596.834" y2="2027.1982" style="stroke:#000000;stroke-width:1;"/><polygon points="592.834,2017.1982,596.834,2027.1982,600.834,2017.1982,596.834,2021.1982" fill="#000000" style="stroke:#000000;stroke-width:1;stroke-linejoin:miter;stroke-miterlimit:10;"/><line x1="596.834" y1="2075.1357" x2="596.834" y2="2107.1357" style="stroke:#000000;stroke-width:1;"/><polygon points="592.834,2097.1357,596.834,2107.1357,600.834,2097.1357,596.834,2101.1357" fill="#000000" style="stroke:#000000;stroke-width:1;stroke-linejoin:miter;stroke-miterlimit:10;"/><line x1="596.834" y1="2155.0732" x2="596.834" y2="2175.0732" style="stroke:#000000;stroke-width:1;"/><polygon points="592.834,2165.0732,596.834,2175.0732,600.834,2165.0732,596.834,2169.0732" fill="#000000" style="stroke:#000000;stroke-width:1;stroke-linejoin:miter;stroke-miterlimit:10;"/><?plantuml-src hLXRRnj557xVNp7qQIro4G-yE1GKqj06MbfYWq1GMTFrs5wntZMxcwO18UK2AIYX5HKLHOYRUE81vAOnSNDn_yBiN-2Ny9qpUtFYSX54QZexj_ETSxvpcJmJTrHNYPudNT-AtTXJucNfl1-hA7RzjlXZ_IinxyJkJJTU4nTSsGvbrxAYM8QnPLLBEsqdy5jkksBfhtLVFqhMaorze8V9Ph8hzA4UwPFa4pt4mbQohll9DfRkpE6AMXpAMBNNbbKKU3TLEEC5ijc8qjdYreD9jnxXferaG-3N9b-xgGVw4SGCHN9R3p0rq0V2xVQ2CFRS6oIluqPn4AuPCJtfXerqngQFQ4h4RbUreAKomr3wRJLHgwkNBY-y9I3iG42rlduCE2EzPzclrgw-BcR5gr7WN_mGWqiNNdaU_rsJuGShAgvOpmgstqgluKY_wQc64wpuCPJGUy0CtFfnzh6UV5gW07ot9UooCA5Fi6kJK1n1wUdfPh3gashJJHdBboe2tlM5hVTrls89KLs6QYhgNC3YGj3jGdmLquktd0u9c6chE3M7wpI2ZkVSjEdO7zltn1ATkSHumnbUQj0-PLVcBEKttHPigx_IHybTSanV_mwP8oYYdy0jwyaECubqqeVmqWYkEKbsU1t34Pm6Xj3c4JP1-O4-JhO4oNo5V56rCaRCI5zwQnygzXtxR4eqMndANj1RyR2luGAI8m4miYUiAZyErnfn2E0Jbs-vSR4Ai_j1h4JejZinjkfxCFa64V09Ksm8wFk2Vi4PGtrC2ko09N0F_XsB7emcenaw-IFn4HGwIdPX1D2LhT9imTqcICYf9so_Opqarm2f2XjUuBUd1CFYORuGTS3iTCMCywLOuiYpgJM982S0EAIxZVsJ7ORqAtq9_Ps-Nn2mBoZSYc_uSOQSBCWEXeJJqtcSJ3TLB5rFG2y2Je5wSfPvazB2Fd4Nqp17oWR-V0pVVyAnYn5Xt3UqOYQPWCjZ0iispcw1RmCYaDdA6jw6namiKRiyktnrYTY7dPmfXeLompA1lzSFJT8WAm7YtmQgfNym_ELZUqPiIkmoEn2c8kKzKY3f3Gf1fw75I_3IfyoW8GNp7YSqTjIGHt1RiaNPIpyWZb7s9BEHAV2rpbGpW8EUya5TsLIHE2_UlMxPbmD7UdMQORAv_dHNTP7lX7x8sR7snkLvpq4HM2EchtPSL00xCtavajCaEyBaa3ZB0Jq2tXGi68LifGy5svrYuBWYt8ZyGnfo3O3YsnKBJkl1hcxi1huubngz3pouZKHo1AK6mKtdn4SuGHpwWK84BhoTCSYGcvGMXPvplFilD35o6F1cgXfn4GQ5QYdc0QkxM-6xX1ZB0EQ7qE2EktpfOPR8E6lpH6uleY0aZA3WKNA78YBpVpM_32vpFIgui2toQiyBecZiokHkSYSZ3R9aVj0BLeLDIQ624jC1G65p8gYK64wkAc0VCrstZECAk_TJYqwCaPdyE0VI6Aw2p9Iz3OGC4ACpU8ehQcuREPmqTLQWQvVphQ4JtU10TvNjphEE-QJKKyzCHNOwfOC-Uiy7o_eaU9QX53gSoKdcfyhHCiDIxSmDLDjwZHxAeAgyvuTAefOZdiQNoKTp6KulKWIkbldk_yMLKU8ifASYOKU1cca2UMJyci8W2BFad7y78mpSimWmULgsgKUfc_S4jsN8OCddQM-J9vB1Fv7ggrjnbe4frCl2Iv9EWoYHoww8D32fL1oL42HR_nL1IKpr1JFxubp1NjILT9Gb9ExOID37_oWHdac3RE2yBH3dpuldilwlr1Jm_4JTwBodVBjKAYhY1T6LjngbgQUOXGvV2n6G3c6-WcQihS9gteO-v0xcC2zA63_b8bYuoDXsQPfCueOmBFTsOmiCZzf0hB9Bmc3rtNCqU-xwX9tDqixKUJGrlhEbZ4kPIwKs6FDsPNoh6sMcpHnGMBgiM6Mkz36XS70MlcSSErubEFyn6lsJ_bRVHqFzi_vD_uBHDnEpCL_r02k7L5gu9Q4UT02Fe80n9zBc9yz7bETtg5yWZurVH9aXhOZKJvKQ7JodJ9yup2avLbJOag7wWBaZMD81TKJ9PqQEQUme1Tmf5TjaQ-eq05JABuoa9nm4q2VhTl8cqGk2zwTbHydck24czQHZ670p7XLfzIAgyYkZVCcfSbEEu5FHp2D4S2cmymwdUBUWroa7-8_yNhsTV4beray_1eeWhxQ2q46xIScd8JtFzcGqnk4AlqDCPtzY-jMieO691cmzxWst-J5ChnjFjU9oWDCDvMExwUkBxBx1jjddgv6ljvbM0rEPYTpLjl8L1MBZHleN05H46KSsi3Rmm5pnOhoaixSxAdv7XZqyg6i85zSFfiI2zBeIBxU5-OlBn05AFirGhjBpTKgikYRCQQKN1Ysa-9Pqy9YZbquFgKVwpXejofljHdC5Ms7UAM7qcctADSR8pzC2O0ehVz2kH0XWUYNFdjuoEsTzJBtsFOuJRj_tihzXR707kejN-2P7qn7Rk2zUdbzuhRvOgo-zVb4iBrwxkboViXRVNghZOvx-752hpzThCC2RLwxCBxyZhYpMbvSMQjHnKm7_4m00?></g></svg>