<svg xmlns="http://www.w3.org/2000/svg" xmlns:xlink="http://www.w3.org/1999/xlink" version="1.1" data-diagram-type="DESCRIPTION" style="width:1494px;height:1217px;background:#FFFFFF;" width="1494px" height="1217px" viewBox="0 0 1494 1217" zoomAndPan="magnify" preserveAspectRatio="none" contentStyleType="text/css"><?plantuml 1.2026.7beta3?><defs/><g><g class="title" data-source-line="2"><text x="435.69" y="35.4209" fill="#000000" font-size="22" lengthAdjust="spacing" textLength="621.5322" font-weight="700" font-family="Verdana">Producer / Consumer — межботовая архитектура</text></g><!--cluster Bot A  ·  Producer--><g class="cluster" data-qualified-name="Bot A  .  Producer" id="ent0001" data-source-line="4"><polygon points="820,67.6094,830,57.6094,1073,57.6094,1073,654.6794,1063,664.6794,820,664.6794,820,67.6094" fill="#E8F5E9" style="stroke:#000000;stroke-width:1;stroke-linejoin:miter;stroke-miterlimit:10;"/><line x1="1063" y1="67.6094" x2="1073" y2="57.6094" style="stroke:#000000;stroke-width:1;"/><line x1="820" y1="67.6094" x2="1063" y2="67.6094" style="stroke:#000000;stroke-width:1;"/><line x1="1063" y1="67.6094" x2="1063" y2="664.6794" style="stroke:#000000;stroke-width:1;"/><text x="873.0127" y="83.6045" fill="#000000" font-size="14" lengthAdjust="spacing" textLength="138.9746" font-weight="700" font-family="Verdana">Bot A  ·  Producer</text></g><!--cluster Bot B  ·  Consumer--><g class="cluster" data-qualified-name="Bot B  .  Consumer" id="ent0009" data-source-line="15"><polygon points="21,556.0894,31,546.0894,789,546.0894,789,1165.9594,779,1175.9594,21,1175.9594,21,556.0894" fill="#E3F2FD" style="stroke:#000000;stroke-width:1;stroke-linejoin:miter;stroke-miterlimit:10;"/><line x1="779" y1="556.0894" x2="789" y2="546.0894" style="stroke:#000000;stroke-width:1;"/><line x1="21" y1="556.0894" x2="779" y2="556.0894" style="stroke:#000000;stroke-width:1;"/><line x1="779" y1="556.0894" x2="779" y2="1175.9594" style="stroke:#000000;stroke-width:1;"/><text x="327.7563" y="572.0845" fill="#000000" font-size="14" lengthAdjust="spacing" textLength="146.4873" font-weight="700" font-family="Verdana">Bot B  ·  Consumer</text></g><!--entity PA--><g class="entity" data-qualified-name="Bot A  .  Producer.PA" id="ent0002" data-source-line="5"><rect x="835.65" y="97.6094" width="140.7002" height="62.5938" fill="#FFFFFF" style="stroke:#000000;stroke-width:1;" rx="2.5" ry="2.5"/><rect x="956.3502" y="102.6094" width="15" height="10" fill="#FFFFFF" style="stroke:#000000;stroke-width:1;"/><rect x="954.3502" y="104.6094" width="4" height="2" fill="#FFFFFF" style="stroke:#000000;stroke-width:1;"/><rect x="954.3502" y="108.6094" width="4" height="2" fill="#FFFFFF" style="stroke:#000000;stroke-width:1;"/><text x="850.65" y="130.6045" fill="#000000" font-size="14" lengthAdjust="spacing" textLength="92.292" font-family="Verdana">FreqtradeBot</text><text x="850.65" y="146.9014" fill="#000000" font-size="14" lengthAdjust="spacing" textLength="100.7002" font-family="Verdana">(live / dry-run)</text></g><!--entity RM--><g class="entity" data-qualified-name="Bot A  .  Producer.RM" id="ent0003" data-source-line="6"><rect x="836.34" y="267.1994" width="129.3115" height="46.2969" fill="#FFFFFF" style="stroke:#000000;stroke-width:1;" rx="2.5" ry="2.5"/><rect x="945.6515" y="272.1994" width="15" height="10" fill="#FFFFFF" style="stroke:#000000;stroke-width:1;"/><rect x="943.6515" y="274.1994" width="4" height="2" fill="#FFFFFF" style="stroke:#000000;stroke-width:1;"/><rect x="943.6515" y="278.1994" width="4" height="2" fill="#FFFFFF" style="stroke:#000000;stroke-width:1;"/><text x="851.34" y="300.1945" fill="#000000" font-size="14" lengthAdjust="spacing" textLength="89.3115" font-family="Verdana">RPCManager</text></g><!--entity WS--><g class="entity" data-qualified-name="Bot A  .  Producer.WS" id="ent0004" data-source-line="7"><rect x="836.09" y="586.0894" width="201.8203" height="62.5938" fill="#FFFFFF" style="stroke:#000000;stroke-width:1;" rx="2.5" ry="2.5"/><rect x="1017.9103" y="591.0894" width="15" height="10" fill="#FFFFFF" style="stroke:#000000;stroke-width:1;"/><rect x="1015.9103" y="593.0894" width="4" height="2" fill="#FFFFFF" style="stroke:#000000;stroke-width:1;"/><rect x="1015.9103" y="597.0894" width="4" height="2" fill="#FFFFFF" style="stroke:#000000;stroke-width:1;"/><text x="851.09" y="619.0845" fill="#000000" font-size="14" lengthAdjust="spacing" textLength="68.2637" font-family="Verdana">ApiServer</text><text x="851.09" y="635.3814" fill="#000000" font-size="14" lengthAdjust="spacing" textLength="161.8203" font-family="Verdana">(FastAPI + WebSocket)</text></g><!--entity MS--><g class="entity" data-qualified-name="Bot A  .  Producer.MS" id="ent0005" data-source-line="8"><rect x="835.79" y="390.4994" width="152.417" height="62.5938" fill="#FFFFFF" style="stroke:#000000;stroke-width:1;" rx="2.5" ry="2.5"/><rect x="968.207" y="395.4994" width="15" height="10" fill="#FFFFFF" style="stroke:#000000;stroke-width:1;"/><rect x="966.207" y="397.4994" width="4" height="2" fill="#FFFFFF" style="stroke:#000000;stroke-width:1;"/><rect x="966.207" y="401.4994" width="4" height="2" fill="#FFFFFF" style="stroke:#000000;stroke-width:1;"/><text x="850.79" y="423.4945" fill="#000000" font-size="14" lengthAdjust="spacing" textLength="112.3213" font-family="Verdana">MessageStream</text><text x="850.79" y="439.7914" fill="#000000" font-size="14" lengthAdjust="spacing" textLength="112.417" font-family="Verdana">(asyncio queue)</text></g><!--entity EMC--><g class="entity" data-qualified-name="Bot B  .  Consumer.EMC" id="ent0010" data-source-line="16"><rect x="274.46" y="829.0394" width="231.0781" height="78.8906" fill="#FFFFFF" style="stroke:#000000;stroke-width:1;" rx="2.5" ry="2.5"/><rect x="485.5381" y="834.0394" width="15" height="10" fill="#FFFFFF" style="stroke:#000000;stroke-width:1;"/><rect x="483.5381" y="836.0394" width="4" height="2" fill="#FFFFFF" style="stroke:#000000;stroke-width:1;"/><rect x="483.5381" y="840.0394" width="4" height="2" fill="#FFFFFF" style="stroke:#000000;stroke-width:1;"/><text x="289.46" y="862.0345" fill="#000000" font-size="14" lengthAdjust="spacing" textLength="191.0781" font-family="Verdana">ExternalMessageConsumer</text><text x="289.46" y="878.3314" fill="#000000" font-size="14" lengthAdjust="spacing" textLength="131.5166" font-family="Verdana">(WebSocket client,</text><text x="289.46" y="894.6282" fill="#000000" font-size="14" lengthAdjust="spacing" textLength="134.3262" font-family="Verdana">отдельный поток)</text></g><!--entity DP2--><g class="entity" data-qualified-name="Bot B  .  Consumer.DP2" id="ent0011" data-source-line="17"><rect x="316.19" y="1113.6594" width="131.6221" height="46.2969" fill="#FFFFFF" style="stroke:#000000;stroke-width:1;" rx="2.5" ry="2.5"/><rect x="427.8121" y="1118.6594" width="15" height="10" fill="#FFFFFF" style="stroke:#000000;stroke-width:1;"/><rect x="425.8121" y="1120.6594" width="4" height="2" fill="#FFFFFF" style="stroke:#000000;stroke-width:1;"/><rect x="425.8121" y="1124.6594" width="4" height="2" fill="#FFFFFF" style="stroke:#000000;stroke-width:1;"/><text x="331.19" y="1146.6545" fill="#000000" font-size="14" lengthAdjust="spacing" textLength="91.6221" font-family="Verdana">DataProvider</text></g><!--entity PPL--><g class="entity" data-qualified-name="Bot B  .  Consumer.PPL" id="ent0012" data-source-line="18"><rect x="540.93" y="837.1794" width="232.1309" height="62.5938" fill="#FFFFFF" style="stroke:#000000;stroke-width:1;" rx="2.5" ry="2.5"/><rect x="753.0609" y="842.1794" width="15" height="10" fill="#FFFFFF" style="stroke:#000000;stroke-width:1;"/><rect x="751.0609" y="844.1794" width="4" height="2" fill="#FFFFFF" style="stroke:#000000;stroke-width:1;"/><rect x="751.0609" y="848.1794" width="4" height="2" fill="#FFFFFF" style="stroke:#000000;stroke-width:1;"/><text x="555.93" y="870.1745" fill="#000000" font-size="14" lengthAdjust="spacing" textLength="109.4707" font-family="Verdana">ExternalPairList</text><text x="555.93" y="886.4714" fill="#000000" font-size="14" lengthAdjust="spacing" textLength="192.1309" font-family="Verdana">(читает пары от Producer)</text></g><!--entity IS2--><g class="entity" data-qualified-name="Bot B  .  Consumer.IS2" id="ent0013" data-source-line="19"><rect x="36.84" y="837.1794" width="202.3262" height="62.5938" fill="#FFFFFF" style="stroke:#000000;stroke-width:1;" rx="2.5" ry="2.5"/><rect x="219.1662" y="842.1794" width="15" height="10" fill="#FFFFFF" style="stroke:#000000;stroke-width:1;"/><rect x="217.1662" y="844.1794" width="4" height="2" fill="#FFFFFF" style="stroke:#000000;stroke-width:1;"/><rect x="217.1662" y="848.1794" width="4" height="2" fill="#FFFFFF" style="stroke:#000000;stroke-width:1;"/><text x="51.84" y="870.1745" fill="#000000" font-size="14" lengthAdjust="spacing" textLength="64.1143" font-family="Verdana">IStrategy</text><text x="51.84" y="886.4714" fill="#000000" font-size="14" lengthAdjust="spacing" textLength="162.3262" font-family="Verdana">(Consumer-стратегия)</text></g><!--entity FB2--><g class="entity" data-qualified-name="Bot B  .  Consumer.FB2" id="ent0014" data-source-line="20"><rect x="37.23" y="586.0894" width="205.5322" height="62.5938" fill="#FFFFFF" style="stroke:#000000;stroke-width:1;" rx="2.5" ry="2.5"/><rect x="222.7622" y="591.0894" width="15" height="10" fill="#FFFFFF" style="stroke:#000000;stroke-width:1;"/><rect x="220.7622" y="593.0894" width="4" height="2" fill="#FFFFFF" style="stroke:#000000;stroke-width:1;"/><rect x="220.7622" y="597.0894" width="4" height="2" fill="#FFFFFF" style="stroke:#000000;stroke-width:1;"/><text x="52.23" y="619.0845" fill="#000000" font-size="14" lengthAdjust="spacing" textLength="92.292" font-family="Verdana">FreqtradeBot</text><text x="52.23" y="635.3814" fill="#000000" font-size="14" lengthAdjust="spacing" textLength="165.5322" font-family="Verdana">(торгует по сигналам)</text></g><g class="entity" data-qualified-name="GMN20" id="ent0021" data-source-line="31"><path d="M804.8,1071.2794 L804.8,1202.3419 L1125.1936,1202.3419 L1125.1936,1081.2794 L1115.1936,1071.2794 L804.8,1071.2794" style="stroke:#000000;stroke-width:1;" fill="#FFFFFF"/><path d="M1115.1936,1071.2794 L1115.1936,1081.2794 L1125.1936,1081.2794 L1115.1936,1071.2794" style="stroke:#000000;stroke-width:1;" fill="#FFFFFF"/><text x="810.8" y="1088.3463" fill="#000000" font-size="13" lengthAdjust="spacing" textLength="295.0898" font-family="Verdana">Consumer подписывается на "analyzed_df".</text><text x="810.8" y="1103.4791" fill="#000000" font-size="13" lengthAdjust="spacing" textLength="253.7729" font-family="Verdana">Producer публикует DataFrame с уже</text><text x="810.8" y="1118.6119" fill="#000000" font-size="13" lengthAdjust="spacing" textLength="299.3936" font-family="Verdana">посчитанными индикаторами и сигналами.</text><text x="810.8" y="1133.7447" fill="#000000" font-size="13" lengthAdjust="spacing" textLength="252.3257" font-family="Verdana">Consumer-стратегия читает готовые</text><text x="810.8" y="1148.8775" fill="#000000" font-size="13" lengthAdjust="spacing" textLength="257.5942" font-family="Verdana">колонки через dp.get_producer_df() —</text><text x="810.8" y="1164.0103" fill="#000000" font-size="13" lengthAdjust="spacing" textLength="277.1323" font-family="Verdana">не обязана пересчитывать индикаторы.</text><text x="810.8" y="1179.1431" fill="#000000" font-size="13" lengthAdjust="spacing" textLength="266.1382" font-family="Verdana">ExternalMessageConsumer запускается</text><text x="810.8" y="1194.276" fill="#000000" font-size="13" lengthAdjust="spacing" textLength="269.7817" font-family="Verdana">в отдельном потоке (threading.Thread).</text></g><g class="entity" data-qualified-name="GMN23" id="ent0024" data-source-line="42"><path d="M1160.09,1086.4094 L1160.09,1187.2063 L1479.9123,1187.2063 L1479.9123,1096.4094 L1469.9123,1086.4094 L1160.09,1086.4094" style="stroke:#000000;stroke-width:1;" fill="#FFFFFF"/><path d="M1469.9123,1086.4094 L1469.9123,1096.4094 L1479.9123,1096.4094 L1469.9123,1086.4094" style="stroke:#000000;stroke-width:1;" fill="#FFFFFF"/><text x="1166.09" y="1103.4763" fill="#000000" font-size="13" lengthAdjust="spacing" textLength="116.5112" font-family="Verdana">Config Consumer:</text><text x="1166.09" y="1118.6091" fill="#000000" font-size="13" lengthAdjust="spacing" textLength="273.2729" font-family="Verdana">"pairlists": [{"method": "ExternalPairList",</text><text x="1228.0749" y="1133.7419" fill="#000000" font-size="13" lengthAdjust="spacing" textLength="148.9731" font-family="Verdana">"number_assets": 10}]</text><text x="1166.09" y="1148.8747" fill="#000000" font-size="13" lengthAdjust="spacing" textLength="204.4263" font-family="Verdana">ExternalPairList берёт whitelist</text><text x="1166.09" y="1164.0075" fill="#000000" font-size="13" lengthAdjust="spacing" textLength="298.8223" font-family="Verdana">от Producer из DataProvider автоматически.</text><text x="1166.09" y="1179.1403" fill="#000000" font-size="13" lengthAdjust="spacing" textLength="228.1348" font-family="Verdana">Не требует явного указания пар.</text></g><g class="entity" data-qualified-name="GMN26" id="ent0027" data-source-line="51"><path d="M807.69,772.6794 L807.69,964.2731 A0,0 0 0 0 807.69,964.2731 L1080.3111,964.2731 A0,0 0 0 0 1080.3111,964.2731 L1080.3111,782.6794 L1070.3111,772.6794 L945.33,772.6794 L937.87,649.1794 L937.33,772.6794 L807.69,772.6794 A0,0 0 0 0 807.69,772.6794" style="stroke:#000000;stroke-width:1;" fill="#FFFFFF"/><path d="M1070.3111,772.6794 L1070.3111,782.6794 L1080.3111,782.6794 L1070.3111,772.6794" style="stroke:#000000;stroke-width:1;" fill="#FFFFFF"/><text x="813.69" y="789.7463" fill="#000000" font-size="13" lengthAdjust="spacing" textLength="251.6211" font-family="Verdana">Producer должен иметь включённый</text><text x="813.69" y="804.8791" fill="#000000" font-size="13" lengthAdjust="spacing" textLength="147.748" font-family="Verdana">api_server с ws_token.</text><text x="813.69" y="820.0119" fill="#000000" font-size="13" lengthAdjust="spacing" textLength="221.311" font-family="Verdana">Consumer указывает в конфиге:</text><text x="813.69" y="835.1447" fill="#000000" font-size="13" lengthAdjust="spacing" textLength="218.4736" font-family="Verdana">"external_message_consumer": {</text><text x="821.9546" y="850.2775" fill="#000000" font-size="13" lengthAdjust="spacing" textLength="103.6001" font-family="Verdana">"enabled": true,</text><text x="821.9546" y="865.4103" fill="#000000" font-size="13" lengthAdjust="spacing" textLength="99.1187" font-family="Verdana">"producers": [{</text><text x="830.2193" y="880.5431" fill="#000000" font-size="13" lengthAdjust="spacing" textLength="105.9106" font-family="Verdana">"name": "main",</text><text x="830.2193" y="895.676" fill="#000000" font-size="13" lengthAdjust="spacing" textLength="155.9111" font-family="Verdana">"host": "producer-host",</text><text x="830.2193" y="910.8088" fill="#000000" font-size="13" lengthAdjust="spacing" textLength="84.335" font-family="Verdana">"port": 8080,</text><text x="830.2193" y="925.9416" fill="#000000" font-size="13" lengthAdjust="spacing" textLength="105.5488" font-family="Verdana">"ws_token": "..."</text><text x="821.9546" y="941.0744" fill="#000000" font-size="13" lengthAdjust="spacing" textLength="13.3428" font-family="Verdana">}]</text><text x="813.69" y="956.2072" fill="#000000" font-size="13" lengthAdjust="spacing" textLength="8.271" font-family="Verdana">}</text></g><!--link PA to RM--><g class="link" data-entity-1="ent0002" data-entity-2="ent0003" id="lnk6" data-source-line="10" data-link-type="dependency"><path d="M905.04,160.6494 C904.06,191.7794 902.7266,234.1718 901.8566,261.9318" style="stroke:#000000;stroke-width:1;" fill="none" id="PA-to-RM"/><polygon points="901.7,266.9294,905.98,258.0591,901.8566,261.9318,897.9839,257.8085,901.7,266.9294" fill="#000000" style="stroke:#000000;stroke-width:1;stroke-linejoin:miter;stroke-miterlimit:10;"/><text x="920.3835" y="203.2663" fill="#000000" font-size="13" lengthAdjust="spacing" textLength="153.4736" font-family="Verdana">send_msg(analyzed_df)</text><text x="912.3601" y="218.3991" fill="#000000" font-size="13" lengthAdjust="spacing" textLength="169.5205" font-family="Verdana">при каждой новой свече</text><text x="905" y="233.5319" fill="#000000" font-size="13" lengthAdjust="spacing" textLength="184.2407" font-family="Verdana">(process_only_new_candles)</text></g><!--link RM to MS--><g class="link" data-entity-1="ent0003" data-entity-2="ent0005" id="lnk7" data-source-line="11" data-link-type="dependency"><path d="M902.92,313.8994 C904.71,335.0494 906.9967,361.8573 908.9867,385.2773" style="stroke:#000000;stroke-width:1;" fill="none" id="RM-to-MS"/><polygon points="909.41,390.2594,912.6337,380.953,908.9867,385.2773,904.6624,381.6303,909.41,390.2594" fill="#000000" style="stroke:#000000;stroke-width:1;stroke-linejoin:miter;stroke-miterlimit:10;"/><text x="907" y="356.5663" fill="#000000" font-size="13" lengthAdjust="spacing" textLength="167.8511" font-family="Verdana">MessageStream.put(msg)</text></g><!--link MS to WS--><g class="link" data-entity-1="ent0005" data-entity-2="ent0004" id="lnk8" data-source-line="12" data-link-type="dependency"><path d="M915.96,453.4694 C920.64,489.7194 927.7386,544.7107 932.4186,580.8907" style="stroke:#000000;stroke-width:1;" fill="none" id="MS-to-WS"/><polygon points="933.06,585.8494,935.8724,576.4106,932.4186,580.8907,927.9385,577.4369,933.06,585.8494" fill="#000000" style="stroke:#000000;stroke-width:1;stroke-linejoin:miter;stroke-miterlimit:10;"/><text x="934.0393" y="496.1563" fill="#000000" font-size="13" lengthAdjust="spacing" textLength="136.0366" font-family="Verdana">channel_broadcaster</text><text x="937.9653" y="511.2891" fill="#000000" font-size="13" lengthAdjust="spacing" textLength="128.1846" font-family="Verdana">читает из очереди</text><text x="926" y="526.4219" fill="#000000" font-size="13" lengthAdjust="spacing" textLength="152.1152" font-family="Verdana">и пушит подписчикам</text></g><!--link EMC to DP2--><g class="link" data-entity-1="ent0010" data-entity-2="ent0011" id="lnk15" data-source-line="22" data-link-type="dependency"><path d="M385.7,908.2094 C383.19,932.8194 380.27,965.3794 379,994.2794 C378.08,1015.1494 378.67,1020.3894 379,1041.2794 C379.39,1065.8994 380.1595,1089.133 380.8895,1108.283" style="stroke:#000000;stroke-width:1;" fill="none" id="EMC-to-DP2"/><polygon points="381.08,1113.2794,384.7343,1104.1335,380.8895,1108.283,376.7401,1104.4383,381.08,1113.2794" fill="#000000" style="stroke:#000000;stroke-width:1;stroke-linejoin:miter;stroke-miterlimit:10;"/><text x="405.635" y="1014.8463" fill="#000000" font-size="13" lengthAdjust="spacing" textLength="136.4365" font-family="Verdana">dp._set_producer_df(</text><text x="388.2646" y="1029.9791" fill="#000000" font-size="13" lengthAdjust="spacing" textLength="179.4419" font-family="Verdana">pair, tf, df, producer_name)</text></g><!--link PPL to DP2--><g class="link" data-entity-1="ent0012" data-entity-2="ent0011" id="lnk16" data-source-line="23" data-link-type="dependency"><path d="M648.51,900.0694 C636.76,937.5094 612.31,1000.8794 572,1041.2794 C537.52,1075.8294 492.5018,1098.1577 452.5918,1113.3777" style="stroke:#000000;stroke-width:1;" fill="none" id="PPL-to-DP2"/><polygon points="447.92,1115.1594,457.7546,1115.6899,452.5918,1113.3777,454.9039,1108.215,447.92,1115.1594" fill="#000000" style="stroke:#000000;stroke-width:1;stroke-linejoin:miter;stroke-miterlimit:10;"/><text x="620.2351" y="1014.8463" fill="#000000" font-size="13" lengthAdjust="spacing" textLength="136.4873" font-family="Verdana">dp.get_producer_df()</text><text x="608" y="1029.9791" fill="#000000" font-size="13" lengthAdjust="spacing" textLength="160.9575" font-family="Verdana">для получения whitelist</text></g><!--link FB2 to IS2--><g class="link" data-entity-1="ent0014" data-entity-2="ent0013" id="lnk17" data-source-line="24" data-link-type="dependency"><path d="M139.75,649.1794 C139.37,697.0794 138.6697,783.8995 138.2897,831.7595" style="stroke:#000000;stroke-width:1;" fill="none" id="FB2-to-IS2"/><polygon points="138.25,836.7594,142.3213,827.7914,138.2897,831.7595,134.3216,827.7279,138.25,836.7594" fill="#000000" style="stroke:#000000;stroke-width:1;stroke-linejoin:miter;stroke-miterlimit:10;"/><text x="165.594" y="708.7463" fill="#000000" font-size="13" lengthAdjust="spacing" textLength="100.6294" font-family="Verdana">analyze_pair() /</text><text x="141" y="723.8791" fill="#000000" font-size="13" lengthAdjust="spacing" textLength="149.8174" font-family="Verdana">populate_entry_trend()</text></g><!--link IS2 to DP2--><g class="link" data-entity-1="ent0013" data-entity-2="ent0011" id="lnk18" data-source-line="25" data-link-type="dependency"><path d="M141.94,900.2394 C148.15,937.5494 163.41,1000.4994 199,1041.2794 C229.8,1076.5694 272.3351,1098.6996 311.0851,1113.6496" style="stroke:#000000;stroke-width:1;" fill="none" id="IS2-to-DP2"/><polygon points="315.75,1115.4494,308.793,1108.478,311.0851,1113.6496,305.9135,1115.9417,315.75,1115.4494" fill="#000000" style="stroke:#000000;stroke-width:1;stroke-linejoin:miter;stroke-miterlimit:10;"/><text x="219.5762" y="1007.3463" fill="#000000" font-size="13" lengthAdjust="spacing" textLength="131.4155" font-family="Verdana">dp.get_producer_df(</text><text x="236.6704" y="1022.4791" fill="#000000" font-size="13" lengthAdjust="spacing" textLength="105.4917" font-family="Verdana">pair, timeframe,</text><text x="208.2646" y="1037.6119" fill="#000000" font-size="13" lengthAdjust="spacing" textLength="162.3032" font-family="Verdana">producer_name="main")</text></g><!--link WS to EMC--><g class="link" data-entity-1="ent0004" data-entity-2="ent0010" id="lnk19" data-source-line="28" data-link-type="dependency"><path d="M855.02,649.1594 C833.6,657.0094 810.49,665.3094 789,672.6794 C777.97,676.4694 775.01,676.8194 764,680.6794 C655.81,718.6094 624.05,718.5294 523,772.6794 C493.38,788.5594 466.6753,807.0198 442.2453,825.5298" style="stroke:#000000;stroke-width:1;stroke-dasharray:7,7;" fill="none" id="WS-to-EMC"/><polygon points="438.26,828.5494,447.8491,826.3024,442.2453,825.5298,443.0179,819.926,438.26,828.5494" fill="#000000" style="stroke:#000000;stroke-width:1;stroke-linejoin:miter;stroke-miterlimit:10;"/><text x="769.821" y="693.7463" fill="#000000" font-size="13" lengthAdjust="spacing" textLength="154.3813" font-family="Verdana">WS /api/v1/message/ws</text><text x="789.3464" y="708.8791" fill="#000000" font-size="13" lengthAdjust="spacing" textLength="115.3306" font-family="Verdana">?token=ws_token</text><text x="777.1145" y="724.0119" fill="#000000" font-size="13" lengthAdjust="spacing" textLength="139.7944" font-family="Verdana">{type: "analyzed_df",</text><text x="769.1323" y="739.1447" fill="#000000" font-size="13" lengthAdjust="spacing" textLength="159.8911" font-family="Verdana">data: {pair, tf, df_json}}</text></g><!--link EMC to GMN20--><g class="link" data-entity-1="ent0010" data-entity-2="ent0021" id="lnk22" data-source-line="31" data-link-type="association"><path d="M432.57,908.2794 C457.19,928.4294 489.8,951.4594 523,964.2794 C629.05,1005.2094 671.5,951.9594 777,994.2794 C820.98,1011.9194 863.71,1042.6294 897.28,1070.9494" style="stroke:#000000;stroke-width:1;stroke-dasharray:7,7;" fill="none" id="EMC-GMN20"/></g><!--link PPL to GMN23--><g class="link" data-entity-1="ent0012" data-entity-2="ent0024" id="lnk25" data-source-line="42" data-link-type="association"><path d="M693.06,900.1094 C718.72,920.6294 754.75,946.9594 790,964.2794 C937.13,1036.5794 987.49,1019.3994 1143,1071.2794 C1156.96,1075.9294 1171.48,1080.9494 1185.94,1086.0494" style="stroke:#000000;stroke-width:1;stroke-dasharray:7,7;" fill="none" id="PPL-GMN23"/></g><?plantuml-src VLNjQXj75FslfvXk_qZKbXoNWYj8Yhy4WGX4LF2FA2nhxLZQHfhTx8xigCRWZvOK76e2_TjtK6p9tjYI3Ns2sLVea_JSsG-l73S6IUFPkNFFFUVSkz_8BkzpvlKiHnIa8tkSDNpN7hIvpofitHN1e8_bluT_CJLL4tMfFgdRw5ZTgdCrYiuOlWwZtrM8hOcwZewZa-XGZGe5uTgS6MkkPAkC_NF5ibiDzktcIks7pH_PVe6nLpMVlvM-PNCSRObYpzdbo6lxmqL_84glcHMmnYeTVDbOhrl2wd1VRxwiq-QgvpIvlyjzXDQiGAusdhFls1RVRhhjDrp6yLjDEbhdGO3eflIvrSTnAnYAjkEojmC-uF71UhE0aurLjhZu30bObGLSs6O_w1IHkJVybTkclLDg2NM78aEchjK8X8n1ncUcPfeJMaP7M4oYzsg2F9xljf7QT4LlQ0g-PxOjOVTuK48gvA1KzIPIpU4hUmDPH5uwXATqQ8iEjRkM4BndRlkkPRTHC5MEH4J_22cFcGhL5OD2I0wC4u0BWHTOxw3C7tGGIw0SupkCZYXMbp4j7EH5Muj5I_KdqRwlBTSsOj4sto4n64amfwTGRKOzQ_SSBkG2afDTne1o4trGi-YKkBfBF7GT4xzPNwThDonfmIQxZfs8lD5OpgThM8x_mWd89_CrtsaNdbBTnvdH4lCqNj0Lpy6h9NbdYDWKxYBAFoQtQkzUuCApEEPvS_aHQn9WdBw8JjAajwHqYCWPWDmGYN5yRMsPZ8Igj7Ae0jBPNjaCk3Iz11wSL6m9nZmKjS3apWApyScU2glFINtWdx-ay-0EikCOt9x5kjv0PcWFI2Y7xNKToNkW33S1bRu9rU6cnD0cfI-MMAKbFDSRzC2H2TdyeGaV2hj842ZWgn1oPJXzlkC3-eBUonVprEXZn1WbyXcyN2u_qmHLoTWLotCgkqyg_TXFbRsW9NwIxXikdku5fbwqnBuSUhpAZ5mh6fJ6XckgR3_Fe_bBu8e3RMZ9sROhfTjdxaxYisoepJN2AGqqKXRhC-hcqNogSk5-XkbkmY2yeUP9_43chL7fC0N3tgMQ848x_IXpwqmtm9JwCSG_uxZv4cUDaWTVk4g5vHpiHspBvjlX8ftGoAL1N9Cny9bX5R9iDbmzwYUQzHGqKnCqbFeKdQah3Nr4rUZ8jAAODFn-UAIUw9HG_y-eOFfEcab7Ulmal5FUSpO_CO1XcfiOG5MKNGn9sn6TyizwLIeNO5P6Qd-XUJm0a7V7wMGSLh5ba6EeDmAZobxj6tqkkwwDjV5mtXWBEFxWpn23_ZOOim8qDTtmPEdWTQxUD9R19k0i-WXXyjquDwhYgPqVVtYlGZugUAhv3BLen9NsWleRD6WNJ21GR43eTAxPkg31TA9fZOKBu-606VaLdlHRyXxGM5lcaYO9ePjgXI3pEUwzYVwCtaSV4pT_HXpw5yEDNiJa_hHdywxD4DqtcfQQh3cBVjE6dsXPUCAWcKm3ivs-XAhwxKD7XBNTuwILz0SyLiT8JHpBMKXbGaUIfdhuf3eQNHUgLkzZ5lL6zjXpVNgyihIobEsbHL5OkLmszBwM_20ZzJy0?></g></svg>