<svg xmlns="http://www.w3.org/2000/svg" viewBox="0 0 720 400" role="img" aria-labelledby="title desc">
  <title id="title">Pencil sketch research placeholder</title>
  <desc id="desc">A grayscale pencil-style component cloud drawn on paper.</desc>
  <defs>
    <filter id="paper" x="0" y="0" width="100%" height="100%">
      <feTurbulence type="fractalNoise" baseFrequency="0.9" numOctaves="3" seed="7" result="noise"/>
      <feColorMatrix in="noise" type="saturate" values="0"/>
      <feComponentTransfer>
        <feFuncA type="table" tableValues="0 0.08"/>
      </feComponentTransfer>
    </filter>
    <filter id="soft-pencil" x="-20%" y="-20%" width="140%" height="140%">
      <feTurbulence type="fractalNoise" baseFrequency="0.55" numOctaves="2" seed="12" result="grain"/>
      <feDisplacementMap in="SourceGraphic" in2="grain" scale="1.2"/>
      <feGaussianBlur stdDeviation="0.18"/>
    </filter>
    <pattern id="hatch" width="12" height="12" patternUnits="userSpaceOnUse" patternTransform="rotate(-28)">
      <path d="M0 6H12" stroke="#343434" stroke-width="0.7" stroke-opacity="0.12"/>
    </pattern>
  </defs>

  <rect width="720" height="400" fill="#f7f5ef"/>
  <rect width="720" height="400" filter="url(#paper)" opacity="0.55"/>

  <g filter="url(#soft-pencil)" fill="none" stroke-linecap="round" stroke-linejoin="round">
    <g stroke="#282828" stroke-width="1.2" stroke-opacity="0.18">
      <path d="M126 300L360 352L616 266"/>
      <path d="M126 300L126 98"/>
      <path d="M126 300L267 185L616 266"/>
      <path d="M185 313L326 198L675 279"/>
      <path d="M244 326L385 211L720 288"/>
      <path d="M267 185L267 76"/>
      <path d="M360 207L360 98"/>
      <path d="M453 228L453 119"/>
      <path d="M546 250L546 141"/>
    </g>

    <g stroke="#202020" stroke-width="2.4" stroke-opacity="0.55">
      <path d="M126 300L620 267"/>
      <path d="M126 300L268 185"/>
      <path d="M126 300L126 96"/>
      <path d="M620 267L646 253M620 267L643 283"/>
      <path d="M268 185L291 178M268 185L281 205"/>
      <path d="M126 96L118 119M126 96L136 119"/>
    </g>

    <g stroke="#303030" stroke-width="1" stroke-opacity="0.22">
      <path d="M228 262C285 204 399 172 508 192C573 204 618 232 626 262"/>
      <path d="M232 281C302 236 430 220 540 246"/>
      <path d="M204 244C297 296 449 304 575 262"/>
      <path d="M256 210C352 258 501 270 616 228"/>
      <path d="M260 185C340 152 475 153 575 190"/>
    </g>

    <ellipse cx="421" cy="230" rx="178" ry="58" fill="url(#hatch)" stroke="#2a2a2a" stroke-width="1.4" stroke-opacity="0.22" transform="rotate(-12 421 230)"/>
  </g>

  <g filter="url(#soft-pencil)" fill="#252525" fill-opacity="0.42" stroke="#111" stroke-opacity="0.18">
    <circle cx="262" cy="247" r="3.2"/>
    <circle cx="284" cy="235" r="2.6"/>
    <circle cx="302" cy="263" r="3"/>
    <circle cx="323" cy="221" r="2.5"/>
    <circle cx="335" cy="251" r="3.4"/>
    <circle cx="351" cy="237" r="2.8"/>
    <circle cx="365" cy="270" r="3.2"/>
    <circle cx="378" cy="216" r="2.7"/>
    <circle cx="391" cy="248" r="3.5"/>
    <circle cx="406" cy="234" r="2.6"/>
    <circle cx="418" cy="260" r="3.2"/>
    <circle cx="432" cy="207" r="2.8"/>
    <circle cx="446" cy="238" r="3.3"/>
    <circle cx="461" cy="226" r="2.5"/>
    <circle cx="475" cy="254" r="3.1"/>
    <circle cx="491" cy="214" r="2.7"/>
    <circle cx="507" cy="241" r="3.4"/>
    <circle cx="522" cy="229" r="2.8"/>
    <circle cx="542" cy="260" r="3"/>
    <circle cx="548" cy="205" r="2.4"/>
    <circle cx="573" cy="232" r="2.8"/>
    <circle cx="585" cy="250" r="2.5"/>
    <circle cx="223" cy="279" r="2.4"/>
    <circle cx="246" cy="220" r="2.7"/>
    <circle cx="294" cy="196" r="2.4"/>
    <circle cx="374" cy="185" r="2.5"/>
    <circle cx="454" cy="179" r="2.4"/>
    <circle cx="535" cy="186" r="2.7"/>
    <circle cx="610" cy="214" r="2.3"/>
  </g>
</svg>
